<?xml version="1.0" standalone="no"?>
<!DOCTYPE svg PUBLIC "-//W3C//DTD SVG 20010904//EN"
 "http://www.w3.org/TR/2001/REC-SVG-20010904/DTD/svg10.dtd">
<svg version="1.0" xmlns="http://www.w3.org/2000/svg"
 width="1000.000000pt" height="1000.000000pt" viewBox="0 0 1000.000000 1000.000000"
 preserveAspectRatio="xMidYMid meet">
<metadata>
Created by potrace 1.11, written by Peter Selinger 2001-2013
</metadata>
<g transform="translate(0.000000,1000.000000) scale(0.100000,-0.100000)"
fill="#000000" stroke="none">
<path d="M4620 9990 c-1204 -102 -2263 -582 -3116 -1412 -872 -849 -1396
-1971 -1495 -3200 -16 -200 -7 -748 15 -928 50 -406 121 -717 247 -1087 341
-996 1005 -1869 1894 -2487 578 -402 1294 -692 2000 -810 326 -55 413 -61 835
-61 422 0 509 6 835 61 1038 173 2005 681 2743 1438 745 766 1219 1723 1371
2766 39 267 46 379 46 730 0 351 -7 463 -46 730 -133 915 -515 1764 -1120
2490 -133 160 -449 476 -609 609 -784 653 -1669 1029 -2700 1147 -159 19 -740
27 -900 14z m880 -474 c919 -110 1725 -456 2430 -1045 148 -123 418 -393 541
-541 591 -708 935 -1510 1046 -2438 25 -209 25 -775 0 -984 -111 -927 -459
-1738 -1044 -2435 -52 -62 -98 -113 -101 -113 -4 0 -173 166 -376 369 -348
348 -369 371 -355 390 8 11 39 50 70 88 342 412 595 948 704 1488 53 263 69
424 69 705 0 281 -16 442 -69 705 -273 1356 -1354 2437 -2710 2710 -263 53
-424 69 -705 69 -281 0 -442 -16 -705 -69 -540 -109 -1076 -362 -1488 -704
-38 -31 -77 -62 -88 -70 -19 -14 -42 7 -390 355 -203 203 -369 372 -369 376 0
3 51 49 113 101 543 456 1156 768 1840 937 194 48 463 94 637 109 69 6 139 13
155 15 78 11 668 -3 795 -18z m-660 -4681 c3164 -3164 3204 -3205 3185 -3223
-59 -56 -184 -159 -293 -240 -650 -491 -1400 -788 -2240 -889 -209 -25 -775
-25 -984 0 -928 111 -1730 455 -2438 1046 -148 123 -418 393 -541 541 -591
708 -935 1510 -1046 2438 -25 209 -25 775 0 984 101 844 402 1599 894 2247 98
128 242 301 252 301 4 0 1448 -1442 3211 -3205z m369 3185 c746 -57 1410 -360
1930 -881 411 -411 689 -914 815 -1479 115 -515 94 -1037 -60 -1548 -49 -162
-95 -275 -184 -457 -110 -222 -251 -440 -382 -588 l-33 -38 -374 375 -374 374
30 39 c244 309 393 757 393 1183 0 992 -731 1826 -1713 1955 -390 50 -794 -18
-1142 -193 -101 -50 -271 -157 -313 -195 l-23 -21 -375 374 -375 375 38 33
c68 61 222 173 326 238 118 75 380 206 514 258 408 158 876 228 1302 196z m98
-1539 c301 -66 542 -198 759 -415 218 -219 348 -456 417 -764 18 -82 21 -128
21 -302 0 -174 -3 -220 -21 -302 -28 -124 -64 -231 -114 -338 -39 -82 -138
-250 -149 -250 -9 0 -2114 2109 -2110 2113 3 3 37 25 75 50 178 113 372 187
590 223 119 20 413 11 532 -15z"/>
</g>
</svg>
