<svg height="175" viewBox="0 0 175 175" width="175" xmlns="http://www.w3.org/2000/svg"><g fill="none" fill-rule="evenodd"><path d="m87.4999337 170.977011c-22.3081363 0-43.281072-8.683199-59.0547856-24.449489-32.56287947-32.548084-32.56287947-85.5069601 0-118.0545143 15.7737136-15.76682 36.7466493-24.45001919 59.0547856-24.45001919 22.3076063 0 43.2810723 8.68319919 59.0553163 24.45001919 32.562349 32.5475542 32.562349 85.5064303 0 118.0545143-15.774244 15.76629-36.74771 24.449489-59.0553163 24.449489" fill="#3d85cc"/><path d="m87.5 0c-11.3606818 0-22.4376515 2.15568182-32.9222727 6.40765152-10.8595455 4.40363638-20.5996212 10.87068178-28.9497728 19.22030298-8.3501515 8.3501516-14.8166666 18.0902273-19.22030298 28.9497728-4.2519697 10.4846212-6.40765152 21.5615909-6.40765152 32.9222727s2.15568182 22.437652 6.40765152 32.922273c4.40363638 10.859545 10.87015148 20.599621 19.22030298 28.949772 8.3501516 8.350152 18.0902273 14.816667 28.9497728 19.220303 10.4846212 4.25197 21.5615909 6.407652 32.9222727 6.407652s22.437652-2.155682 32.922273-6.407652c10.859545-4.403636 20.599621-10.870151 28.949772-19.220303 8.350152-8.350151 14.816667-18.090227 19.220303-28.949772 4.25197-10.484621 6.407652-21.5615912 6.407652-32.922273s-2.155682-22.4376515-6.407652-32.9222727c-4.403636-10.8595455-10.870151-20.5996212-19.220303-28.9497728-8.350151-8.3496212-18.090227-14.8166666-28.949772-19.22030298-10.484621-4.2519697-21.5615912-6.40765152-32.922273-6.40765152m0 7.95454545c20.357803 0 40.714545 7.76628785 56.247121 23.29833335 31.064621 31.0646212 31.064621 81.4296212 0 112.4942422-15.532576 15.532046-35.889318 23.298334-56.247121 23.298334-20.3572727 0-40.7150758-7.766288-56.2471212-23.298334-31.06462122-31.064621-31.06462122-81.429621 0-112.4942422 15.5320454-15.5320455 35.8898485-23.29833335 56.2471212-23.29833335" fill="#2d4554"/><path d="m86.9970603 143.821839c-15.1853931 0-29.4622223-5.910827-40.1999886-16.643033-22.1662105-22.156352-22.1662105-58.207007 0-80.3633589 10.7377663-10.732206 25.0145955-16.6430333 40.1999886-16.6430333 15.1853927 0 29.4622227 5.9108273 40.2005177 16.6430333 22.165681 22.1563519 22.165681 58.2070069 0 80.3633589-10.738295 10.732206-25.015125 16.643033-40.2005177 16.643033" fill="#71b359"/><path d="m86.9971264 26.1494253c-16.2532146 0-31.5333951 6.3292191-43.025674 17.8220271-11.492808 11.4922789-17.8220271 26.7724594-17.8220271 43.025674s6.3292191 31.5333956 17.8220271 43.0256736c11.4922789 11.492808 26.7724594 17.822028 43.025674 17.822028s31.5333956-6.32922 43.0256736-17.822028c11.492808-11.492278 17.822028-26.772459 17.822028-43.0256736s-6.32922-31.5333951-17.822028-43.025674c-11.492278-11.492808-26.772459-17.8220271-43.0256736-17.8220271m0 7.9366567c13.5409946 0 27.0825186 5.1657052 37.4139286 15.4971158 20.662821 20.6633502 20.662821 54.1645072 0 74.8278572-10.33141 10.331411-23.872934 15.497116-37.4139286 15.497116-13.5409945 0-27.0825181-5.165705-37.4139286-15.497116-20.6628211-20.66335-20.6628211-54.164507 0-74.8278572 10.3314105-10.3314106 23.8729341-15.4971158 37.4139286-15.4971158" fill="#2d4554"/><path d="m88.0028736 118.678161c-8.1975831 0-15.904133-3.19023-21.7009915-8.984392-11.9657279-11.9606943-11.9657279-31.4210966 0-43.3817912 5.7968585-5.7941617 13.5034084-8.9843916 21.7009915-8.9843916 8.197583 0 15.9041334 3.1902299 21.7009914 8.9843916 11.965728 11.9606946 11.965728 31.4210969 0 43.3817912-5.796858 5.794162-13.5034084 8.984392-21.7009914 8.984392" fill="#7accc8"/><path d="m88.0028736 53.3045977c-9.272456 0-17.9900173 3.6091545-24.5467471 10.1628581-13.5353717 13.5291247-13.5353717 35.5417109 0 49.0708352 6.5567298 6.553704 15.2742911 10.162858 24.5467471 10.162858s17.9905514-3.609688 24.5467474-10.162858c13.535371-13.5291243 13.535371-35.5417105 0-49.0708352-6.556196-6.5537036-15.2742914-10.1628581-24.5467474-10.1628581m0 8.0072944c6.83391 0 13.6678204 2.6061075 18.8819074 7.8177885 10.428709 10.4233621 10.428709 27.3230239 0 37.7463864-5.214087 5.211681-12.0479974 7.817788-18.8819074 7.817788-6.8339101 0-13.6678202-2.606107-18.8819077-7.817788-10.4281751-10.4233625-10.4281751-27.3230243 0-37.7463864 5.2140875-5.211681 12.0479976-7.8177885 18.8819077-7.8177885" fill="#2d4554"/><path d="m87.7808381 170.977011c-22.3832044 0-43.4267151-8.714192-59.2535081-24.536756-32.67245533-32.664258-32.67245533-85.8121607 0-118.475887l2.8214436-2.8206898 118.5075484 118.4753548-2.821444 2.821222c-15.827325 15.822564-36.871368 24.536756-59.2540399 24.536756" fill="#fff"/><path d="m32.5681044 22.3566417-5.4581766 5.4581766c-8.1026161 8.1026161-14.3774351 17.5539529-18.65052821 28.0910588-4.1259225 10.1743252-6.21770037 20.92241-6.21770037 31.9463109s2.09177787 21.7725 6.21770037 31.946311c4.27309311 10.53762 10.54791211 19.988957 18.65052821 28.091573s17.5539529 14.37795 28.0915733 18.650528c10.1738107 4.125923 20.92241 6.217701 31.9463109 6.217701s21.771986-2.091778 31.946311-6.217701c10.537106-4.272578 19.988957-10.547912 28.091573-18.650528l5.457662-5.457662-5.457662-5.458691-109.1599296-109.1589007zm111.0757186 121.4134683c-15.521414 15.520884-35.863528 23.281061-56.2067013 23.281061-20.3426438 0-40.6858176-7.760177-56.2067015-23.281061-31.04229791-31.042298-31.04229791-81.3716353 0-112.4139332z" fill="#2d4554"/><path d="m87.4999337 170.977011c-22.3081363 0-43.281072-8.683199-59.0547856-24.449489-32.56287947-32.548084-32.56287947-85.5069601 0-118.0545143 15.7737136-15.76682 36.7466493-24.45001919 59.0547856-24.45001919 22.3076063 0 43.2810723 8.68319919 59.0553163 24.45001919 32.562349 32.5475542 32.562349 85.5064303 0 118.0545143-15.774244 15.76629-36.74771 24.449489-59.0553163 24.449489" fill="#3d85cc"/><path d="m87.5 0c-11.3606818 0-22.4376515 2.15568182-32.9222727 6.40765152-10.8595455 4.40363638-20.5996212 10.87068178-28.9497728 19.22030298-8.3501515 8.3501516-14.8166666 18.0902273-19.22030298 28.9497728-4.2519697 10.4846212-6.40765152 21.5615909-6.40765152 32.9222727s2.15568182 22.437652 6.40765152 32.922273c4.40363638 10.859545 10.87015148 20.599621 19.22030298 28.949772 8.3501516 8.350152 18.0902273 14.816667 28.9497728 19.220303 10.4846212 4.25197 21.5615909 6.407652 32.9222727 6.407652s22.437652-2.155682 32.922273-6.407652c10.859545-4.403636 20.599621-10.870151 28.949772-19.220303 8.350152-8.350151 14.816667-18.090227 19.220303-28.949772 4.25197-10.484621 6.407652-21.5615912 6.407652-32.922273s-2.155682-22.4376515-6.407652-32.9222727c-4.403636-10.8595455-10.870151-20.5996212-19.220303-28.9497728-8.350151-8.3496212-18.090227-14.8166666-28.949772-19.22030298-10.484621-4.2519697-21.5615912-6.40765152-32.922273-6.40765152m0 7.95454545c20.357803 0 40.714545 7.76628785 56.247121 23.29833335 31.064621 31.0646212 31.064621 81.4296212 0 112.4942422-15.532576 15.532046-35.889318 23.298334-56.247121 23.298334-20.3572727 0-40.7150758-7.766288-56.2471212-23.298334-31.06462122-31.064621-31.06462122-81.429621 0-112.4942422 15.5320454-15.5320455 35.8898485-23.29833335 56.2471212-23.29833335" fill="#2d4554"/><path d="m86.9970603 143.821839c-15.1853931 0-29.4622223-5.910827-40.1999886-16.643033-22.1662105-22.156352-22.1662105-58.207007 0-80.3633589 10.7377663-10.732206 25.0145955-16.6430333 40.1999886-16.6430333 15.1853927 0 29.4622227 5.9108273 40.2005177 16.6430333 22.165681 22.1563519 22.165681 58.2070069 0 80.3633589-10.738295 10.732206-25.015125 16.643033-40.2005177 16.643033" fill="#71b359"/><path d="m86.9971264 26.1494253c-16.2532146 0-31.5333951 6.3292191-43.025674 17.8220271-11.492808 11.4922789-17.8220271 26.7724594-17.8220271 43.025674s6.3292191 31.5333956 17.8220271 43.0256736c11.4922789 11.492808 26.7724594 17.822028 43.025674 17.822028s31.5333956-6.32922 43.0256736-17.822028c11.492808-11.492278 17.822028-26.772459 17.822028-43.0256736s-6.32922-31.5333951-17.822028-43.025674c-11.492278-11.492808-26.772459-17.8220271-43.0256736-17.8220271m0 7.9366567c13.5409946 0 27.0825186 5.1657052 37.4139286 15.4971158 20.662821 20.6633502 20.662821 54.1645072 0 74.8278572-10.33141 10.331411-23.872934 15.497116-37.4139286 15.497116-13.5409945 0-27.0825181-5.165705-37.4139286-15.497116-20.6628211-20.66335-20.6628211-54.164507 0-74.8278572 10.3314105-10.3314106 23.8729341-15.4971158 37.4139286-15.4971158" fill="#2d4554"/><path d="m88.0028736 118.678161c-8.1975831 0-15.904133-3.19023-21.7009915-8.984392-11.9657279-11.9606943-11.9657279-31.4210966 0-43.3817912 5.7968585-5.7941617 13.5034084-8.9843916 21.7009915-8.9843916 8.197583 0 15.9041334 3.1902299 21.7009914 8.9843916 11.965728 11.9606946 11.965728 31.4210969 0 43.3817912-5.796858 5.794162-13.5034084 8.984392-21.7009914 8.984392" fill="#7accc8"/><path d="m88.0028736 53.3045977c-9.272456 0-17.9900173 3.6091545-24.5467471 10.1628581-13.5353717 13.5291247-13.5353717 35.5417109 0 49.0708352 6.5567298 6.553704 15.2742911 10.162858 24.5467471 10.162858s17.9905514-3.609688 24.5467474-10.162858c13.535371-13.5291243 13.535371-35.5417105 0-49.0708352-6.556196-6.5537036-15.2742914-10.1628581-24.5467474-10.1628581m0 8.0072944c6.83391 0 13.6678204 2.6061075 18.8819074 7.8177885 10.428709 10.4233621 10.428709 27.3230239 0 37.7463864-5.214087 5.211681-12.0479974 7.817788-18.8819074 7.817788-6.8339101 0-13.6678202-2.606107-18.8819077-7.817788-10.4281751-10.4233625-10.4281751-27.3230243 0-37.7463864 5.2140875-5.211681 12.0479976-7.8177885 18.8819077-7.8177885" fill="#2d4554"/><path d="m87.7808381 170.977011c-22.3832044 0-43.4267151-8.714192-59.2535081-24.536756-32.67245533-32.664258-32.67245533-85.8121607 0-118.475887l2.8214436-2.8206898 118.5075484 118.4753548-2.821444 2.821222c-15.827325 15.822564-36.871368 24.536756-59.2540399 24.536756" fill="#fff"/><path d="m32.5681044 22.3566417-5.4581766 5.4581766c-8.1026161 8.1026161-14.3774351 17.5539529-18.65052821 28.0910588-4.1259225 10.1743252-6.21770037 20.92241-6.21770037 31.9463109s2.09177787 21.7725 6.21770037 31.946311c4.27309311 10.53762 10.54791211 19.988957 18.65052821 28.091573s17.5539529 14.37795 28.0915733 18.650528c10.1738107 4.125923 20.92241 6.217701 31.9463109 6.217701s21.771986-2.091778 31.946311-6.217701c10.537106-4.272578 19.988957-10.547912 28.091573-18.650528l5.457662-5.457662-5.457662-5.458691-109.1599296-109.1589007zm111.0757186 121.4134683c-15.521414 15.520884-35.863528 23.281061-56.2067013 23.281061-20.3426438 0-40.6858176-7.760177-56.2067015-23.281061-31.04229791-31.042298-31.04229791-81.3716353 0-112.4139332z" fill="#2d4554"/></g></svg>