<svg height="175" viewBox="0 0 946 175" width="946" xmlns="http://www.w3.org/2000/svg"><g fill="none" fill-rule="evenodd"><g fill="#0e274d" fill-rule="nonzero" transform="translate(218 15)"><path d="m46.8 79.72h-17.41v40.73h-28.56v-111.54h53.24c13.52 0 23.9133333 3.0433333 31.18 9.13s10.9 14.8733333 10.9 26.36c0 8.1133333-1.86 14.8733333-5.58 20.28s-9.1266667 9.4066667-16.22 12l28.39 43.77h-32.11zm-17.41-20.61h19.78c6.1933333 0 10.7-1.1266667 13.52-3.38s4.2266667-5.86 4.22-10.82c0-4.84-1.4066667-8.39-4.22-10.65s-7.32-3.3866667-13.52-3.38l-19.78-.0000294zm162.14 27.37h-57.63c.9 5.3333333 2.843333 9.22 5.83 11.66s6.96 3.68 11.92 3.72c3.55711.148864 7.088314-.666561 10.22-2.36 2.608925-1.5304912 4.520325-4.0156698 5.33-6.93l23.32 7.43c-2.257461 7.086202-7.205409 13.003632-13.78 16.48-6.813333 3.78-15.176667 5.666667-25.09 5.66-14.76 0-26.056667-3.83-33.89-11.49s-11.753333-18.4766667-11.76-32.45c0-14 3.83-24.8166667 11.49-32.45s18.533333-11.4633333 32.62-11.49c13.626667 0 24.076667 3.7466667 31.35 11.24s10.913333 17.9933333 10.92 31.5c.060921 3.1814613-.224086 6.360122-.85 9.48zm-57.8-15.54h31.78c-1.333333-11.0466667-6.516667-16.57-15.55-16.57-9.126667 0-14.536667 5.5233333-16.23 16.57z"/><path d="m234.76 120.45h-28.76v-120.33h28.73z"/><path d="m340 103.38-2.19 16.06c-3.540446 1.865737-7.499166 2.795175-11.5 2.7-12.16 0-19.426667-4.333333-21.8-13-5.066667 8.666667-15.093333 13-30.08 13-8.453333 0-14.93-1.803333-19.43-5.41s-6.75-8.85-6.75-15.73c0-7.2066667 2.563333-13.0366667 7.69-17.49s13.546667-7.8566667 25.26-10.21l19.1-3.72v-3c0-3.8333333-1.07-6.8733333-3.21-9.12s-5.07-3.4-8.79-3.46c-4.28 0-7.773333 1-10.48 3s-4.453333 5.3333333-5.24 10l-23.32-6.76c1.200259-7.8123039 5.612917-14.7666818 12.17-19.18 6.666667-4.5733333 15.623333-6.8566667 26.87-6.85 13.18 0 23.206667 2.7033333 30.08 8.11s10.31 13.52 10.31 24.34v30.76c0 4.393333 2.026667 6.59 6.08 6.59 1.76554.064499 3.530281-.14808 5.23-.63zm-44.44-3.12c2.981935-1.88522 4.772465-5.1823677 4.73-8.71v-7.26l-13.69 3.21c-3.613333.9-6.176667 1.9966667-7.69 3.29-1.559898 1.38905-2.399626 3.4147108-2.28 5.5-.133454 2.0400709.673241 4.029182 2.19 5.4 1.742242 1.328346 3.902887 1.988248 6.09 1.86 3.809442.04157 7.53659-1.108741 10.66-3.29z"/><path d="m398.49 120.45c-3.16 9.02-6.596667 16.176667-10.31 21.47-3.285432 4.918564-7.839398 8.857502-13.18 11.4-5.08 2.313333-11.223333 3.47-18.43 3.47-9.573333 0-17.24-2.086667-23-6.26l6.08-19.26c1.690174 1.622363 3.749237 2.809756 6 3.46 2.792478.689327 5.664603 1.002099 8.54.93 2.867049.141183 5.721253-.468954 8.28-1.77 2-1.186667 3.633333-3.3 4.9-6.34l2-5.24-9.8-23-25.14-63.31h31.57l13 48.17 4.11 17.83 4.56-18.59 13-47.49h28.73zm126-101.99c7.44 6.36 11.156667 15.5133333 11.15 27.46 0 11.38-3.716667 20.1966667-11.15 26.45s-18.08 9.38-31.94 9.38h-22.14v38.7h-29.07v-111.54h51.21c13.86 0 24.506667 3.1833333 31.94 9.55zm-22.56 38.36c2.98-2.42 4.473333-6.1633333 4.48-11.23 0-4.96-1.493333-8.65-4.48-11.07s-7.63-3.6333333-13.93-3.64h-17.59v29.58h17.59c6.293333 0 10.936667-1.2133333 13.93-3.64zm131.68 46.56-2.19 16.06c-3.540446 1.865737-7.499166 2.795175-11.5 2.7-12.16 0-19.426667-4.333333-21.8-13-5.073333 8.666667-15.1 13-30.08 13-8.446667 0-14.923333-1.803333-19.43-5.41s-6.76-8.85-6.76-15.73c0-7.2066667 2.563333-13.0366667 7.69-17.49s13.546667-7.8566667 25.26-10.21l19.1-3.72v-3c0-3.8333333-1.07-6.8733333-3.21-9.12s-5.07-3.4-8.79-3.46c-4.28 0-7.773333 1-10.48 3s-4.453333 5.3333333-5.24 10l-23.32-6.76c1.206155-7.7889961 5.605949-14.7221147 12.14-19.13 6.666667-4.5733333 15.623333-6.8566667 26.87-6.85 13.18 0 23.206667 2.7033333 30.08 8.11s10.31 13.52 10.31 24.34v30.76c0 4.393333 2.026667 6.59 6.08 6.59 1.781525.052476 3.560146-.177023 5.27-.68zm-44.44-3.12c2.981935-1.88522 4.772465-5.1823677 4.73-8.71v-7.26l-13.69 3.21c-3.606667.9-6.17 1.9966667-7.69 3.29-1.559898 1.38905-2.399626 3.4147108-2.28 5.5-.133954 2.0421934.677051 4.032841 2.2 5.4 1.737517 1.330067 3.895723 1.990308 6.08 1.86 3.806038.03948 7.529377-1.110734 10.65-3.29zm138.59-100.14v120.33h-25.85l-1-16c-4.678457 11.001802-15.598367 18.033352-27.55 17.74-10.92 0-19.453333-3.83-25.6-11.49s-9.216667-18.3633333-9.21-32.11c0-14 3.1-24.8733333 9.3-32.62s14.76-11.6333333 25.68-11.66c5.433234-.1507386 10.788018 1.3220013 15.38 4.23 4.33889 2.9005117 7.822688 6.9091241 10.09 11.61v-50zm-33.38 95.88c2.76-3.3333333 4.31-8.15 4.65-14.45v-6.73c-.34-6.1866667-1.89-10.9733333-4.65-14.36-2.679037-3.3419046-6.779511-5.2215975-11.06-5.07-5.073333 0-8.99 1.8566667-11.75 5.57s-4.14 9.46-4.14 17.24 1.38 13.5266667 4.14 17.24 6.676667 5.566667 11.75 5.56c4.266266.157406 8.359827-1.693209 11.06-5z"/></g><path d="m87.4999337 170.977011c-22.3081363 0-43.281072-8.683199-59.0547856-24.449489-32.56287947-32.548084-32.56287947-85.5069601 0-118.0545143 15.7737136-15.76682 36.7466493-24.45001919 59.0547856-24.45001919 22.3076063 0 43.2810723 8.68319919 59.0553163 24.45001919 32.562349 32.5475542 32.562349 85.5064303 0 118.0545143-15.774244 15.76629-36.74771 24.449489-59.0553163 24.449489" fill="#3d85cc"/><path d="m87.5 0c-11.3606818 0-22.4376515 2.15568182-32.9222727 6.40765152-10.8595455 4.40363638-20.5996212 10.87068178-28.9497728 19.22030298-8.3501515 8.3501516-14.8166666 18.0902273-19.22030298 28.9497728-4.2519697 10.4846212-6.40765152 21.5615909-6.40765152 32.9222727s2.15568182 22.437652 6.40765152 32.922273c4.40363638 10.859545 10.87015148 20.599621 19.22030298 28.949772 8.3501516 8.350152 18.0902273 14.816667 28.9497728 19.220303 10.4846212 4.25197 21.5615909 6.407652 32.9222727 6.407652s22.437652-2.155682 32.922273-6.407652c10.859545-4.403636 20.599621-10.870151 28.949772-19.220303 8.350152-8.350151 14.816667-18.090227 19.220303-28.949772 4.25197-10.484621 6.407652-21.5615912 6.407652-32.922273s-2.155682-22.4376515-6.407652-32.9222727c-4.403636-10.8595455-10.870151-20.5996212-19.220303-28.9497728-8.350151-8.3496212-18.090227-14.8166666-28.949772-19.22030298-10.484621-4.2519697-21.5615912-6.40765152-32.922273-6.40765152m0 7.95454545c20.357803 0 40.714545 7.76628785 56.247121 23.29833335 31.064621 31.0646212 31.064621 81.4296212 0 112.4942422-15.532576 15.532046-35.889318 23.298334-56.247121 23.298334-20.3572727 0-40.7150758-7.766288-56.2471212-23.298334-31.06462122-31.064621-31.06462122-81.429621 0-112.4942422 15.5320454-15.5320455 35.8898485-23.29833335 56.2471212-23.29833335" fill="#2d4554"/><path d="m86.9970603 143.821839c-15.1853931 0-29.4622223-5.910827-40.1999886-16.643033-22.1662105-22.156352-22.1662105-58.207007 0-80.3633589 10.7377663-10.732206 25.0145955-16.6430333 40.1999886-16.6430333 15.1853927 0 29.4622227 5.9108273 40.2005177 16.6430333 22.165681 22.1563519 22.165681 58.2070069 0 80.3633589-10.738295 10.732206-25.015125 16.643033-40.2005177 16.643033" fill="#71b359"/><path d="m86.9971264 26.1494253c-16.2532146 0-31.5333951 6.3292191-43.025674 17.8220271-11.492808 11.4922789-17.8220271 26.7724594-17.8220271 43.025674s6.3292191 31.5333956 17.8220271 43.0256736c11.4922789 11.492808 26.7724594 17.822028 43.025674 17.822028s31.5333956-6.32922 43.0256736-17.822028c11.492808-11.492278 17.822028-26.772459 17.822028-43.0256736s-6.32922-31.5333951-17.822028-43.025674c-11.492278-11.492808-26.772459-17.8220271-43.0256736-17.8220271m0 7.9366567c13.5409946 0 27.0825186 5.1657052 37.4139286 15.4971158 20.662821 20.6633502 20.662821 54.1645072 0 74.8278572-10.33141 10.331411-23.872934 15.497116-37.4139286 15.497116-13.5409945 0-27.0825181-5.165705-37.4139286-15.497116-20.6628211-20.66335-20.6628211-54.164507 0-74.8278572 10.3314105-10.3314106 23.8729341-15.4971158 37.4139286-15.4971158" fill="#2d4554"/><path d="m88.0028736 118.678161c-8.1975831 0-15.904133-3.19023-21.7009915-8.984392-11.9657279-11.9606943-11.9657279-31.4210966 0-43.3817912 5.7968585-5.7941617 13.5034084-8.9843916 21.7009915-8.9843916 8.197583 0 15.9041334 3.1902299 21.7009914 8.9843916 11.965728 11.9606946 11.965728 31.4210969 0 43.3817912-5.796858 5.794162-13.5034084 8.984392-21.7009914 8.984392" fill="#7accc8"/><path d="m88.0028736 53.3045977c-9.272456 0-17.9900173 3.6091545-24.5467471 10.1628581-13.5353717 13.5291247-13.5353717 35.5417109 0 49.0708352 6.5567298 6.553704 15.2742911 10.162858 24.5467471 10.162858s17.9905514-3.609688 24.5467474-10.162858c13.535371-13.5291243 13.535371-35.5417105 0-49.0708352-6.556196-6.5537036-15.2742914-10.1628581-24.5467474-10.1628581m0 8.0072944c6.83391 0 13.6678204 2.6061075 18.8819074 7.8177885 10.428709 10.4233621 10.428709 27.3230239 0 37.7463864-5.214087 5.211681-12.0479974 7.817788-18.8819074 7.817788-6.8339101 0-13.6678202-2.606107-18.8819077-7.817788-10.4281751-10.4233625-10.4281751-27.3230243 0-37.7463864 5.2140875-5.211681 12.0479976-7.8177885 18.8819077-7.8177885" fill="#2d4554"/><path d="m87.7808381 170.977011c-22.3832044 0-43.4267151-8.714192-59.2535081-24.536756-32.67245533-32.664258-32.67245533-85.8121607 0-118.475887l2.8214436-2.8206898 118.5075484 118.4753548-2.821444 2.821222c-15.827325 15.822564-36.871368 24.536756-59.2540399 24.536756" fill="#fff"/><path d="m32.5681044 22.3566417-5.4581766 5.4581766c-8.1026161 8.1026161-14.3774351 17.5539529-18.65052821 28.0910588-4.1259225 10.1743252-6.21770037 20.92241-6.21770037 31.9463109s2.09177787 21.7725 6.21770037 31.946311c4.27309311 10.53762 10.54791211 19.988957 18.65052821 28.091573s17.5539529 14.37795 28.0915733 18.650528c10.1738107 4.125923 20.92241 6.217701 31.9463109 6.217701s21.771986-2.091778 31.946311-6.217701c10.537106-4.272578 19.988957-10.547912 28.091573-18.650528l5.457662-5.457662-5.457662-5.458691-109.1599296-109.1589007zm111.0757186 121.4134683c-15.521414 15.520884-35.863528 23.281061-56.2067013 23.281061-20.3426438 0-40.6858176-7.760177-56.2067015-23.281061-31.04229791-31.042298-31.04229791-81.3716353 0-112.4139332z" fill="#2d4554"/><path d="m87.4999337 170.977011c-22.3081363 0-43.281072-8.683199-59.0547856-24.449489-32.56287947-32.548084-32.56287947-85.5069601 0-118.0545143 15.7737136-15.76682 36.7466493-24.45001919 59.0547856-24.45001919 22.3076063 0 43.2810723 8.68319919 59.0553163 24.45001919 32.562349 32.5475542 32.562349 85.5064303 0 118.0545143-15.774244 15.76629-36.74771 24.449489-59.0553163 24.449489" fill="#3d85cc"/><path d="m87.5 0c-11.3606818 0-22.4376515 2.15568182-32.9222727 6.40765152-10.8595455 4.40363638-20.5996212 10.87068178-28.9497728 19.22030298-8.3501515 8.3501516-14.8166666 18.0902273-19.22030298 28.9497728-4.2519697 10.4846212-6.40765152 21.5615909-6.40765152 32.9222727s2.15568182 22.437652 6.40765152 32.922273c4.40363638 10.859545 10.87015148 20.599621 19.22030298 28.949772 8.3501516 8.350152 18.0902273 14.816667 28.9497728 19.220303 10.4846212 4.25197 21.5615909 6.407652 32.9222727 6.407652s22.437652-2.155682 32.922273-6.407652c10.859545-4.403636 20.599621-10.870151 28.949772-19.220303 8.350152-8.350151 14.816667-18.090227 19.220303-28.949772 4.25197-10.484621 6.407652-21.5615912 6.407652-32.922273s-2.155682-22.4376515-6.407652-32.9222727c-4.403636-10.8595455-10.870151-20.5996212-19.220303-28.9497728-8.350151-8.3496212-18.090227-14.8166666-28.949772-19.22030298-10.484621-4.2519697-21.5615912-6.40765152-32.922273-6.40765152m0 7.95454545c20.357803 0 40.714545 7.76628785 56.247121 23.29833335 31.064621 31.0646212 31.064621 81.4296212 0 112.4942422-15.532576 15.532046-35.889318 23.298334-56.247121 23.298334-20.3572727 0-40.7150758-7.766288-56.2471212-23.298334-31.06462122-31.064621-31.06462122-81.429621 0-112.4942422 15.5320454-15.5320455 35.8898485-23.29833335 56.2471212-23.29833335" fill="#2d4554"/><path d="m86.9970603 143.821839c-15.1853931 0-29.4622223-5.910827-40.1999886-16.643033-22.1662105-22.156352-22.1662105-58.207007 0-80.3633589 10.7377663-10.732206 25.0145955-16.6430333 40.1999886-16.6430333 15.1853927 0 29.4622227 5.9108273 40.2005177 16.6430333 22.165681 22.1563519 22.165681 58.2070069 0 80.3633589-10.738295 10.732206-25.015125 16.643033-40.2005177 16.643033" fill="#71b359"/><path d="m86.9971264 26.1494253c-16.2532146 0-31.5333951 6.3292191-43.025674 17.8220271-11.492808 11.4922789-17.8220271 26.7724594-17.8220271 43.025674s6.3292191 31.5333956 17.8220271 43.0256736c11.4922789 11.492808 26.7724594 17.822028 43.025674 17.822028s31.5333956-6.32922 43.0256736-17.822028c11.492808-11.492278 17.822028-26.772459 17.822028-43.0256736s-6.32922-31.5333951-17.822028-43.025674c-11.492278-11.492808-26.772459-17.8220271-43.0256736-17.8220271m0 7.9366567c13.5409946 0 27.0825186 5.1657052 37.4139286 15.4971158 20.662821 20.6633502 20.662821 54.1645072 0 74.8278572-10.33141 10.331411-23.872934 15.497116-37.4139286 15.497116-13.5409945 0-27.0825181-5.165705-37.4139286-15.497116-20.6628211-20.66335-20.6628211-54.164507 0-74.8278572 10.3314105-10.3314106 23.8729341-15.4971158 37.4139286-15.4971158" fill="#2d4554"/><path d="m88.0028736 118.678161c-8.1975831 0-15.904133-3.19023-21.7009915-8.984392-11.9657279-11.9606943-11.9657279-31.4210966 0-43.3817912 5.7968585-5.7941617 13.5034084-8.9843916 21.7009915-8.9843916 8.197583 0 15.9041334 3.1902299 21.7009914 8.9843916 11.965728 11.9606946 11.965728 31.4210969 0 43.3817912-5.796858 5.794162-13.5034084 8.984392-21.7009914 8.984392" fill="#7accc8"/><path d="m88.0028736 53.3045977c-9.272456 0-17.9900173 3.6091545-24.5467471 10.1628581-13.5353717 13.5291247-13.5353717 35.5417109 0 49.0708352 6.5567298 6.553704 15.2742911 10.162858 24.5467471 10.162858s17.9905514-3.609688 24.5467474-10.162858c13.535371-13.5291243 13.535371-35.5417105 0-49.0708352-6.556196-6.5537036-15.2742914-10.1628581-24.5467474-10.1628581m0 8.0072944c6.83391 0 13.6678204 2.6061075 18.8819074 7.8177885 10.428709 10.4233621 10.428709 27.3230239 0 37.7463864-5.214087 5.211681-12.0479974 7.817788-18.8819074 7.817788-6.8339101 0-13.6678202-2.606107-18.8819077-7.817788-10.4281751-10.4233625-10.4281751-27.3230243 0-37.7463864 5.2140875-5.211681 12.0479976-7.8177885 18.8819077-7.8177885" fill="#2d4554"/><path d="m87.7808381 170.977011c-22.3832044 0-43.4267151-8.714192-59.2535081-24.536756-32.67245533-32.664258-32.67245533-85.8121607 0-118.475887l2.8214436-2.8206898 118.5075484 118.4753548-2.821444 2.821222c-15.827325 15.822564-36.871368 24.536756-59.2540399 24.536756" fill="#fff"/><path d="m32.5681044 22.3566417-5.4581766 5.4581766c-8.1026161 8.1026161-14.3774351 17.5539529-18.65052821 28.0910588-4.1259225 10.1743252-6.21770037 20.92241-6.21770037 31.9463109s2.09177787 21.7725 6.21770037 31.946311c4.27309311 10.53762 10.54791211 19.988957 18.65052821 28.091573s17.5539529 14.37795 28.0915733 18.650528c10.1738107 4.125923 20.92241 6.217701 31.9463109 6.217701s21.771986-2.091778 31.946311-6.217701c10.537106-4.272578 19.988957-10.547912 28.091573-18.650528l5.457662-5.457662-5.457662-5.458691-109.1599296-109.1589007zm111.0757186 121.4134683c-15.521414 15.520884-35.863528 23.281061-56.2067013 23.281061-20.3426438 0-40.6858176-7.760177-56.2067015-23.281061-31.04229791-31.042298-31.04229791-81.3716353 0-112.4139332z" fill="#2d4554"/></g></svg>