<svg height="330" viewBox="0 0 330 330" width="330" xmlns="http://www.w3.org/2000/svg" xmlns:xlink="http://www.w3.org/1999/xlink"><mask id="a" fill="#fff"><path d="m0 0h330v330h-330z" fill="none"/></mask><mask id="b" fill="#fff"><path d="m0 0h330v330h-330z" fill="none"/></mask><mask id="c" fill="#fff"><path d="m0 0h330v330h-330z" fill="none"/></mask><mask id="d" fill="#fff"><path d="m0 0h330v330h-330z" fill="none"/></mask><g fill="#555553" fill-rule="nonzero"><path d="m48.3271 48.3272c-15.746 15.746-27.94 34.113-36.244 54.591-8.018 19.771-12.083 40.658-12.083 62.082 0 21.423 4.065 42.31 12.083 62.082 8.304 20.477 20.498 38.845 36.244 54.591 15.746 15.745 34.113 27.94 54.591 36.244 19.771 8.017 40.659 12.083 62.082 12.083s42.31-4.066 62.082-12.083c20.477-8.304 38.845-20.499 54.591-36.244 15.746-15.746 27.94-34.114 36.244-54.591 8.017-19.772 12.083-40.659 12.083-62.082 0-21.424-4.066-42.311-12.083-62.082-8.304-20.478-20.498-38.845-36.244-54.591s-34.114-27.94-54.591-36.244c-19.772-8.018-40.659-12.083-62.082-12.083s-42.311 4.065-62.082 12.083c-20.478 8.304-38.845 20.498-54.591 36.244m10.607 10.607c58.579-58.579 153.553-58.579 212.132 0 58.578 58.579 58.578 153.553 0 212.132-58.579 58.578-153.553 58.578-212.132 0-58.579-58.579-58.579-153.553 0-212.132" mask="url(#a)"/><path d="m165 50c-30.718 0-59.597 11.962-81.317 33.683-1.778 1.777-3.483 3.608-5.129 5.478l10.63 10.629c1.621-1.881 3.321-3.717 5.106-5.5 39.052-39.053 102.368-39.053 141.421 0 39.052 39.052 39.052 102.368 0 141.42-1.784 1.785-3.62 3.485-5.501 5.106l10.629 10.63c1.871-1.646 3.701-3.351 5.478-5.129 21.721-21.72 33.683-50.599 33.683-81.317s-11.962-59.597-33.683-81.317c-21.72-21.721-50.599-33.683-81.317-33.683" mask="url(#b)"/><path d="m119.0381 119.0381c-1.794 1.794-3.447 3.676-4.988 5.619l10.688 10.688c1.47-1.991 3.104-3.898 4.906-5.701 19.527-19.525 51.185-19.525 70.711 0 19.527 19.527 19.527 51.185 0 70.711-1.802 1.803-3.71 3.436-5.7 4.907l10.688 10.688c1.942-1.541 3.824-3.194 5.619-4.988 25.344-25.343 25.344-66.581 0-91.924-25.344-25.344-66.58-25.344-91.924 0" mask="url(#c)"/><path d="m279.552 268.945-10.607 10.606-218.496-218.496 10.606-10.606z" mask="url(#d)"/></g></svg>