<svg height="274" viewBox="0 0 284 274" width="284" xmlns="http://www.w3.org/2000/svg"><g fill="none"><g transform="translate(17 20)"><g transform="translate(137.552 124.893)"><path d="m83.6779186 8.5397433c-2.0048934-6.00944899-8.4416563-9.27774581-14.4563365-7.38002507-6.0146801 2.00314966-9.285822 8.43431437-7.3864493 14.44376337l29.651318 91.0905954c2.0048933 5.587733 8.1250942 8.750601 13.9287332 7.063738 6.120201-1.792292 9.813425-8.223456 7.808532-14.1274765 0-.2108578-29.5457974-91.0905952-29.5457974-91.0905952z" fill="#ecb32d"/><path d="m37.7764122 23.4052224c-2.0048934-6.009449-8.4416564-9.2777458-14.4563365-7.3800251-6.0146802 2.0031497-9.285822 8.4343144-7.3864493 14.4437634l29.6513179 91.0905953c2.0048934 5.587733 8.1250943 8.750601 13.928733 7.063738 6.1202009-1.792292 9.8134255-8.223456 7.8085321-14.127476 0-.210858-29.5457972-91.0905956-29.5457972-91.0905956z" fill="#63c1a0"/><path d="m121.032248 83.921428c6.01468-2.0031497 9.285822-8.4343144 7.386449-14.4437634-2.004893-6.009449-8.441656-9.2777458-14.456336-7.380025l-91.2754095 29.7309581c-5.5925974 2.0031497-8.7582185 8.1180276-7.0698872 13.9166183 1.7938519 6.114878 8.2306149 9.804891 14.1397744 7.801741.2110414 0 91.2754093-29.625529 91.2754093-29.625529z" fill="#e01a59"/><path d="m41.6806783 109.751516c5.9091594-1.897721 13.6121708-4.428015 21.8427858-7.063739-1.8993727-5.9040196-4.4318696-13.6003314-7.0698872-21.823788l-21.8427858 7.0637383z" fill="#331433"/><path d="m87.6877054 94.7806078c8.2306149-2.6357233 15.9336266-5.1660176 21.8427856-7.0637383-1.899372-5.9040201-4.431869-13.600332-7.069887-21.8237885l-21.8427858 7.0637383z" fill="#d62027"/><path d="m106.048308 38.0598436c6.01468-2.0031497 9.285822-8.4343144 7.386449-14.4437634-2.004893-6.0094489-8.441656-9.2777458-14.4563362-7.380025l-91.16988867 29.6255292c-5.59259734 2.0031497-8.75821847 8.1180276-7.0698872 13.9166187 1.79385198 6.1148779 8.23061495 9.8048905 14.13977437 7.8017408.2110414 0 91.1698887-29.5201003 91.1698887-29.5201003z" fill="#89d3df"/><path d="m26.8022589 63.7845024c5.9091595-1.8977207 13.6121709-4.428015 21.8427858-7.0637382-2.6380176-8.2234566-5.1705145-15.9197684-7.0698871-21.8237885l-21.8427859 7.0637383z" fill="#258b74"/><path d="m72.7037654 48.9190234c8.2306149-2.6357233 15.9336263-5.1660176 21.8427858-7.0637383-2.6380176-8.2234565-5.1705145-15.9197684-7.0698872-21.8237885l-21.8427858 7.0637383z" fill="#819c3c"/></g><path d="m216.524066 71.2747167-3.045139-3.0443643c-4.237187-4.2361083-11.086041-4.2361083-15.323228 0s-4.237187 11.0832195 0 15.3193279l21.662753 21.6572397c1.007821 1.007565 2.199869 1.79845 3.532795 2.350986 1.322089.552535 2.730872.83422 4.139655.83422 1.408784 0 2.817567-.281685 4.139656-.83422 1.332926-.552536 2.524973-1.343421 3.532795-2.350986l21.662752-21.6572397c4.237187-4.2361084 4.237187-11.0832196 0-15.3193279-4.237186-4.2361083-11.086041-4.2361083-15.323227 0l-3.38108 3.3693854c-2.102338-65.7734367-51.149671-71.54797825-97.325253-71.54797825-5.992748 0-10.836795 4.85364843-10.836795 10.83403665 0 5.9803883 4.844047 10.8340367 10.836795 10.8340367 55.874513 0 74.372922 11.7765979 75.727521 49.5548838zm-172.8772266 96.2225303 3.0451393 3.044365c2.1131749 2.112637 4.8873944 3.174372 7.6616138 3.174372 2.7742195 0 5.5484389-1.061735 7.6616139-3.174372 4.2371867-4.236109 4.2371867-11.08322 0-15.319328l-21.6627526-21.657239c-1.0078219-1.007566-2.1998694-1.798451-3.5327951-2.350986-2.6441779-1.094238-5.6351332-1.094238-8.2793111 0-1.3329258.552535-2.5249732 1.34342-3.5327951 2.350986l-21.66275262 21.657239c-4.23718673 4.236108-4.23718673 11.083219 0 15.319328 2.11317497 2.112637 4.88739441 3.174372 7.66161382 3.174372 2.7742195 0 5.5484389-1.061735 7.6616139-3.174372l3.3810799-3.369386c2.1023382 65.773437 51.149671 71.547979 97.3252535 71.547979 5.992747 0 10.836794-4.853649 10.836794-10.834037s-4.844047-10.834037-10.836794-10.834037c-55.8745138 0-74.3729223-11.776598-75.7275216-49.554884z" fill="#7accc8"/></g><path d="m66.1544139 128.345244c-16.6196703 0-32.2446097-6.469026-43.9961032-18.214989-24.25950402-24.2484806-24.25950402-63.703101 0-87.9511873 11.7514935-11.7463576 27.3764329-18.21538326 43.9961032-18.21538326 16.6192755 0 32.24461 6.46902566 43.9964991 18.21538326 24.259108 24.2480863 24.259108 63.7027067 0 87.9511873-11.7518891 11.745963-27.3772236 18.214989-43.9964991 18.214989" fill="#3d85cc"/><path d="m66.1544633.96653842c-8.4637633 0-16.7161597 1.60599345-24.5272537 4.77373156-8.0904143 3.28073054-15.3468182 8.09871082-21.5677219 14.31921922-6.2209036 6.2209036-11.03848886 13.4773074-14.31921944 21.5677217-3.16773816 7.8110938-4.77373163 16.0634901-4.77373163 24.5272533 0 8.4637633 1.60599347 16.71616 4.77373163 24.5272536 3.28073058 8.0904139 8.09831584 15.3468182 14.31921944 21.5677212 6.2209037 6.220904 13.4773076 11.038489 21.5677219 14.319219 7.811094 3.167738 16.0634904 4.773732 24.5272537 4.773732 8.4637634 0 16.7161602-1.605994 24.527254-4.773732 8.090414-3.28073 15.3468177-8.098315 21.5677217-14.319219 6.220904-6.220903 11.038489-13.4773073 14.319219-21.5677212 3.167738-7.8110936 4.773732-16.0634903 4.773732-24.5272536 0-8.4637632-1.605994-16.7161595-4.773732-24.5272533-3.28073-8.0904143-8.098315-15.3468181-14.319219-21.5677217-6.220904-6.2205084-13.4773077-11.03848868-21.5677217-14.31921922-7.8110938-3.16773811-16.0634906-4.77373156-24.527254-4.77373156m0 5.92617507c15.1666626 0 30.3325346 5.78592221 41.9043797 17.35737171 23.143294 23.143294 23.143294 60.6654641 0 83.8087578-11.5718451 11.57145-26.7377171 17.357372-41.9043797 17.357372-15.1662674 0-30.33293-5.785922-41.9043796-17.357372-23.14329425-23.1432937-23.14329425-60.6654638 0-83.8087578 11.5714496-11.5714495 26.7381122-17.35737171 41.9043796-17.35737171" fill="#2d4554"/><path d="m65.7797708 108.114508c-11.3131919 0-21.9494993-4.403594-29.9491875-12.3991402-16.513935-16.5065901-16.513935-43.3645035 0-59.8710935 7.9996882-7.9955457 18.6359956-12.3991408 29.9491875-12.3991408 11.3131916 0 21.9494996 4.4035951 29.9495817 12.3991408 16.5135405 16.50659 16.5135405 43.3645034 0 59.8710935-8.0000821 7.9955462-18.6363901 12.3991402-29.9495817 12.3991402" fill="#71b359"/><path d="m65.7798201 20.4479875c-12.1087242 0-23.4925332 4.7152991-32.054337 13.2774969-8.562198 8.5618038-13.2774971 19.9456126-13.2774971 32.0543366 0 12.1087239 4.7152991 23.4925331 13.2774971 32.0543362 8.5618038 8.5621978 19.9456128 13.2774978 32.054337 13.2774978 12.1087241 0 23.4925335-4.7153 32.0543366-13.2774978 8.5621983-8.5618031 13.2774973-19.9456123 13.2774973-32.0543362 0-12.108724-4.715299-23.4925328-13.2774973-32.0543366-8.5618031-8.5621978-19.9456125-13.2774969-32.0543366-13.2774969m0 5.9128479c10.088107 0 20.1766084 3.8484755 27.8735592 11.5454267 15.3939027 15.3942964 15.3939027 40.3528214 0 55.7471177-7.6969508 7.6969512-17.7854522 11.5454272-27.8735592 11.5454272s-20.1766081-3.848476-27.8735593-11.5454272c-15.3939025-15.3942963-15.3939025-40.3528213 0-55.7471177 7.6969512-7.6969512 17.7854523-11.5454267 27.8735593-11.5454267" fill="#2d4554"/><path d="m66.5291066 89.3823459c-6.1072394 0-11.8486566-2.3767369-16.1673445-6.6934158-8.9145256-8.9107754-8.9145256-23.4088698 0-32.3196455 4.3186879-4.3166787 10.0601051-6.6934155 16.1673445-6.6934155 6.1072393 0 11.848657 2.3767368 16.1673444 6.6934155 8.9145258 8.9107757 8.9145258 23.4088701 0 32.3196455-4.3186874 4.3166789-10.0601051 6.6934158-16.1673444 6.6934158" fill="#7accc8"/><path d="m66.5291066 40.6787231c-6.9080249 0-13.4026506 2.6888377-18.2874463 7.5713788-10.0839179 10.0792637-10.0839179 26.4787475 0 36.558011 4.8847957 4.8825414 11.3794214 7.5713786 18.2874463 7.5713786 6.908025 0 13.4030486-2.6892351 18.2874465-7.5713786 10.0839174-10.0792635 10.0839174-26.4787473 0-36.558011-4.8843979-4.8825411-11.3794215-7.5713788-18.2874465-7.5713788m0 5.9654733c5.0912963 0 10.1825929 1.9415628 14.0671131 5.8242905 7.7694391 7.7654555 7.7694391 20.3557858 0 28.1212415-3.8845202 3.8827278-8.9758168 5.8242901-14.0671131 5.8242901s-10.1825927-1.9415623-14.0671133-5.8242901c-7.7690413-7.7654557-7.7690413-20.355786 0-28.1212415 3.8845206-3.8827277 8.975817-5.8242905 14.0671133-5.8242905" fill="#2d4554"/><path d="m66.3636891 128.345244c-16.6755964 0-32.3531145-6.492116-44.1441525-18.280003-24.34113855-24.3350311-24.34113855-63.9304773 0-88.2651123l2.1019892-2.1014277 88.2887012 88.264716-2.101989 2.101824c-11.7914345 11.787887-27.4693492 18.280003-44.1445489 18.280003" fill="#fff"/><path d="m25.2299332 17.6223453-4.0663681 4.0663681c-6.0364886 6.0364884-10.7112593 13.0777803-13.89473452 20.9279755-3.07383238 7.5799218-4.6322171 15.5872973-4.6322171 23.8001571s1.55838472 16.2206185 4.6322171 23.8001572c3.18347522 7.8505782 7.85824592 14.8918698 13.89473452 20.9283588 6.0364885 6.036488 13.0777805 10.711642 20.9283591 13.894734 7.5795385 3.073833 15.5872974 4.632217 23.8001574 4.632217 8.2128599 0 16.2202357-1.558384 23.8001575-4.632217 7.8501953-3.183092 14.8918699-7.858246 20.9283589-13.894734l4.065985-4.065985-4.065985-4.066751-81.32468-81.3239126zm82.7519518 90.4536247c-11.5635288 11.563134-26.718503 17.344504-41.8742663 17.344504-15.1553688 0-30.3111325-5.78137-41.8742667-17.344504-23.12666334-23.1266631-23.12666334-60.6222643 0-83.7489273z" fill="#2d4554"/><path d="m66.1544139 128.345244c-16.6196703 0-32.2446097-6.469026-43.9961032-18.214989-24.25950402-24.2484806-24.25950402-63.703101 0-87.9511873 11.7514935-11.7463576 27.3764329-18.21538326 43.9961032-18.21538326 16.6192755 0 32.24461 6.46902566 43.9964991 18.21538326 24.259108 24.2480863 24.259108 63.7027067 0 87.9511873-11.7518891 11.745963-27.3772236 18.214989-43.9964991 18.214989" fill="#3d85cc"/><path d="m66.1544633.96653842c-8.4637633 0-16.7161597 1.60599345-24.5272537 4.77373156-8.0904143 3.28073054-15.3468182 8.09871082-21.5677219 14.31921922-6.2209036 6.2209036-11.03848886 13.4773074-14.31921944 21.5677217-3.16773816 7.8110938-4.77373163 16.0634901-4.77373163 24.5272533 0 8.4637633 1.60599347 16.71616 4.77373163 24.5272536 3.28073058 8.0904139 8.09831584 15.3468182 14.31921944 21.5677212 6.2209037 6.220904 13.4773076 11.038489 21.5677219 14.319219 7.811094 3.167738 16.0634904 4.773732 24.5272537 4.773732 8.4637634 0 16.7161602-1.605994 24.527254-4.773732 8.090414-3.28073 15.3468177-8.098315 21.5677217-14.319219 6.220904-6.220903 11.038489-13.4773073 14.319219-21.5677212 3.167738-7.8110936 4.773732-16.0634903 4.773732-24.5272536 0-8.4637632-1.605994-16.7161595-4.773732-24.5272533-3.28073-8.0904143-8.098315-15.3468181-14.319219-21.5677217-6.220904-6.2205084-13.4773077-11.03848868-21.5677217-14.31921922-7.8110938-3.16773811-16.0634906-4.77373156-24.527254-4.77373156m0 5.92617507c15.1666626 0 30.3325346 5.78592221 41.9043797 17.35737171 23.143294 23.143294 23.143294 60.6654641 0 83.8087578-11.5718451 11.57145-26.7377171 17.357372-41.9043797 17.357372-15.1662674 0-30.33293-5.785922-41.9043796-17.357372-23.14329425-23.1432937-23.14329425-60.6654638 0-83.8087578 11.5714496-11.5714495 26.7381122-17.35737171 41.9043796-17.35737171" fill="#2d4554"/><path d="m65.7797708 108.114508c-11.3131919 0-21.9494993-4.403594-29.9491875-12.3991402-16.513935-16.5065901-16.513935-43.3645035 0-59.8710935 7.9996882-7.9955457 18.6359956-12.3991408 29.9491875-12.3991408 11.3131916 0 21.9494996 4.4035951 29.9495817 12.3991408 16.5135405 16.50659 16.5135405 43.3645034 0 59.8710935-8.0000821 7.9955462-18.6363901 12.3991402-29.9495817 12.3991402" fill="#71b359"/><path d="m65.7798201 20.4479875c-12.1087242 0-23.4925332 4.7152991-32.054337 13.2774969-8.562198 8.5618038-13.2774971 19.9456126-13.2774971 32.0543366 0 12.1087239 4.7152991 23.4925331 13.2774971 32.0543362 8.5618038 8.5621978 19.9456128 13.2774978 32.054337 13.2774978 12.1087241 0 23.4925335-4.7153 32.0543366-13.2774978 8.5621983-8.5618031 13.2774973-19.9456123 13.2774973-32.0543362 0-12.108724-4.715299-23.4925328-13.2774973-32.0543366-8.5618031-8.5621978-19.9456125-13.2774969-32.0543366-13.2774969m0 5.9128479c10.088107 0 20.1766084 3.8484755 27.8735592 11.5454267 15.3939027 15.3942964 15.3939027 40.3528214 0 55.7471177-7.6969508 7.6969512-17.7854522 11.5454272-27.8735592 11.5454272s-20.1766081-3.848476-27.8735593-11.5454272c-15.3939025-15.3942963-15.3939025-40.3528213 0-55.7471177 7.6969512-7.6969512 17.7854523-11.5454267 27.8735593-11.5454267" fill="#2d4554"/><path d="m66.5291066 89.3823459c-6.1072394 0-11.8486566-2.3767369-16.1673445-6.6934158-8.9145256-8.9107754-8.9145256-23.4088698 0-32.3196455 4.3186879-4.3166787 10.0601051-6.6934155 16.1673445-6.6934155 6.1072393 0 11.848657 2.3767368 16.1673444 6.6934155 8.9145258 8.9107757 8.9145258 23.4088701 0 32.3196455-4.3186874 4.3166789-10.0601051 6.6934158-16.1673444 6.6934158" fill="#7accc8"/><path d="m66.5291066 40.6787231c-6.9080249 0-13.4026506 2.6888377-18.2874463 7.5713788-10.0839179 10.0792637-10.0839179 26.4787475 0 36.558011 4.8847957 4.8825414 11.3794214 7.5713786 18.2874463 7.5713786 6.908025 0 13.4030486-2.6892351 18.2874465-7.5713786 10.0839174-10.0792635 10.0839174-26.4787473 0-36.558011-4.8843979-4.8825411-11.3794215-7.5713788-18.2874465-7.5713788m0 5.9654733c5.0912963 0 10.1825929 1.9415628 14.0671131 5.8242905 7.7694391 7.7654555 7.7694391 20.3557858 0 28.1212415-3.8845202 3.8827278-8.9758168 5.8242901-14.0671131 5.8242901s-10.1825927-1.9415623-14.0671133-5.8242901c-7.7690413-7.7654557-7.7690413-20.355786 0-28.1212415 3.8845206-3.8827277 8.975817-5.8242905 14.0671133-5.8242905" fill="#2d4554"/><path d="m66.3636891 128.345244c-16.6755964 0-32.3531145-6.492116-44.1441525-18.280003-24.34113855-24.3350311-24.34113855-63.9304773 0-88.2651123l2.1019892-2.1014277 88.2887012 88.264716-2.101989 2.101824c-11.7914345 11.787887-27.4693492 18.280003-44.1445489 18.280003" fill="#fff"/><path d="m25.2299332 17.6223453-4.0663681 4.0663681c-6.0364886 6.0364884-10.7112593 13.0777803-13.89473452 20.9279755-3.07383238 7.5799218-4.6322171 15.5872973-4.6322171 23.8001571s1.55838472 16.2206185 4.6322171 23.8001572c3.18347522 7.8505782 7.85824592 14.8918698 13.89473452 20.9283588 6.0364885 6.036488 13.0777805 10.711642 20.9283591 13.894734 7.5795385 3.073833 15.5872974 4.632217 23.8001574 4.632217 8.2128599 0 16.2202357-1.558384 23.8001575-4.632217 7.8501953-3.183092 14.8918699-7.858246 20.9283589-13.894734l4.065985-4.065985-4.065985-4.066751-81.32468-81.3239126zm82.7519518 90.4536247c-11.5635288 11.563134-26.718503 17.344504-41.8742663 17.344504-15.1553688 0-30.3111325-5.78137-41.8742667-17.344504-23.12666334-23.1266631-23.12666334-60.6222643 0-83.7489273z" fill="#2d4554"/></g></svg>